<?xml version="1.0" encoding="UTF-8"?>
<svg width="46px" height="17px" viewBox="0 0 46 17" version="1.1" xmlns="http://www.w3.org/2000/svg" xmlns:xlink="http://www.w3.org/1999/xlink">
    <title>LIVE</title>
    <g id="🎬--Tech-Crunch-LED---IN-PROGRESS" stroke="none" stroke-width="1" fill="none" fill-rule="evenodd">
        <g id="4" transform="translate(-420.000000, -45.000000)" fill="#FFFFFF" fill-rule="nonzero">
            <g id="LIVE" transform="translate(420.000000, 45.000000)">
                <polygon id="Path" points="10.7742432 14.4317394 3.04463828 14.4317394 3.04463828 0 0 0 0 17 10.7742432 17"></polygon>
                <polygon id="Path" points="16.0020523 17 16.0020523 0 12.9574141 0 12.9574141 17"></polygon>
                <polygon id="Path" points="27.2365316 17 33.1605952 0 29.8799384 0 25.5608004 13.7366597 25.4899949 13.7366597 21.1708568 0 17.8193946 0 23.7434582 17"></polygon>
                <polygon id="Path" points="46 14.4317394 38.0225757 14.4317394 38.0225757 9.57796258 45.5633658 9.57796258 45.5633658 7.16285516 38.0225757 7.16285516 38.0225757 2.56826057 46 2.56826057 46 0 34.9779374 0 34.9779374 17 46 17"></polygon>
            </g>
        </g>
    </g>
</svg>