<?xml version="1.0" encoding="UTF-8"?>
<svg width="152px" height="44px" viewBox="0 0 152 44" version="1.1" xmlns="http://www.w3.org/2000/svg" xmlns:xlink="http://www.w3.org/1999/xlink">
    <title>logo_magnet_horiz_white</title>
    <defs>
        <linearGradient x1="51.1946245%" y1="68.3236825%" x2="51.1946245%" y2="10.9934535%" id="linearGradient-1">
            <stop stop-color="#9BDFF5" offset="0%"></stop>
            <stop stop-color="#52D5FF" offset="100%"></stop>
        </linearGradient>
        <linearGradient x1="46.8409811%" y1="10.8020369%" x2="46.8409811%" y2="68.5180772%" id="linearGradient-2">
            <stop stop-color="#FFBE87" offset="0%"></stop>
            <stop stop-color="#FF7E4E" offset="100%"></stop>
        </linearGradient>
    </defs>
    <g id="🎬--Tech-Crunch-LED---IN-PROGRESS" stroke="none" stroke-width="1" fill="none" fill-rule="evenodd">
        <g id="4" transform="translate(-30.000000, -30.000000)">
            <g id="logo_magnet_horiz_white" transform="translate(30.000000, 30.000000)">
                <path d="M72.8089953,30.919708 C73.3541655,30.919708 73.7606108,30.7931873 74.0283294,30.540146 C74.2960481,30.2871047 74.4299065,29.9318736 74.4299065,29.4744526 L74.4299065,21.810219 C74.4299065,20.82725 74.3033495,19.9610703 74.0502336,19.2116788 C73.7971196,18.4622874 73.4344827,17.8321168 72.9623248,17.3211679 C72.4901669,16.810219 71.9206575,16.4257911 71.2537967,16.1678832 C70.586936,15.9099754 69.8446262,15.7810219 69.0268692,15.7810219 C68.608256,15.7810219 68.2164136,15.8175182 67.8513435,15.8905109 C67.4862734,15.9635036 67.1504089,16.06326 66.84375,16.189781 C66.5370911,16.316302 66.2572046,16.459854 66.0040888,16.620438 C65.7509729,16.7810219 65.5221963,16.9440392 65.317757,17.1094891 C64.8407327,17.4987838 64.4367215,17.93674 64.1057243,18.4233577 C63.6871103,17.6058394 63.0908294,16.9610703 62.3168808,16.4890511 C61.5429322,16.0170319 60.5815813,15.7810219 59.4328271,15.7810219 C59.0336841,15.7810219 58.668614,15.8126515 58.3376168,15.8759124 C58.0066196,15.9391733 57.6999608,16.0243312 57.4176402,16.1313869 C57.1353196,16.2384434 56.8773364,16.3600976 56.6436916,16.4963504 C56.4100467,16.6326031 56.2056075,16.7737226 56.0303738,16.919708 C55.6020252,17.2603412 55.2466902,17.6447692 54.9643692,18.0729927 L54.9059579,18.0729927 L54.7745327,17.1824818 C54.7453271,16.9781022 54.6966509,16.7980538 54.6285047,16.6423358 C54.5603584,16.4866186 54.4654402,16.3527984 54.34375,16.2408759 C54.2220603,16.1289544 54.0784659,16.046229 53.9129673,15.9927007 C53.7474687,15.9391725 53.5576323,15.9124088 53.3434579,15.9124088 C52.9151091,15.9124088 52.5841121,16.0291971 52.3504673,16.2627737 C52.1168224,16.4963504 52,16.8272509 52,17.2554745 L52,29.4744526 C52,29.9318734 52.1338591,30.2871045 52.4015771,30.540146 C52.6692953,30.7931873 53.0757399,30.919708 53.6209112,30.919708 C54.1660823,30.919708 54.5725271,30.7931873 54.8402453,30.540146 C55.1079635,30.2871047 55.2418224,29.9318736 55.2418224,29.4744526 L55.2418224,20.7445255 C55.4754673,20.316302 55.7626556,19.9270073 56.1033879,19.5766423 C56.2396808,19.4306569 56.3954439,19.2871049 56.5706776,19.1459854 C56.7459112,19.0048659 56.9406154,18.8807783 57.1547897,18.7737226 C57.3689636,18.666667 57.5977411,18.5766423 57.8411215,18.5036496 C58.084501,18.4306569 58.3424841,18.3941606 58.6150701,18.3941606 C59.0726252,18.3941606 59.486371,18.4695867 59.8563084,18.620438 C60.2262458,18.7712901 60.5402061,19.0024334 60.7981893,19.3138686 C61.0561724,19.6253038 61.2533103,20.0218978 61.3896028,20.5036496 C61.5258953,20.9854015 61.5940421,21.5620438 61.5940421,22.2335766 L61.5940421,29.4744526 C61.5940421,29.9318734 61.7279014,30.2871045 61.9956192,30.540146 C62.2633378,30.7931873 62.6697822,30.919708 63.2149533,30.919708 C63.7601252,30.919708 64.1665696,30.7931873 64.4342874,30.540146 C64.702006,30.2871047 64.8358645,29.9318736 64.8358645,29.4744526 L64.8358645,22.2189781 C64.8358645,21.8880785 64.8236949,21.5936743 64.7993575,21.3357664 C64.7750201,21.0778595 64.7628505,20.9148421 64.7628505,20.8467153 C65.0159663,20.3892947 65.3080224,19.9854015 65.6390187,19.6350365 C65.7850467,19.4793184 65.9481108,19.3284672 66.1282126,19.1824818 C66.3083145,19.0364964 66.5054523,18.9051095 66.7196262,18.7883212 C66.9338,18.6715328 67.1650117,18.5766423 67.4132593,18.5036496 C67.661507,18.4306569 67.9316589,18.3941606 68.223715,18.3941606 C68.6715337,18.3941606 69.0804122,18.4695867 69.4503505,18.620438 C69.8202888,18.7712901 70.134249,19.0024334 70.3922313,19.3138686 C70.6502136,19.6253038 70.8473514,20.0218978 70.9836449,20.5036496 C71.1199383,20.9854015 71.1880841,21.5620438 71.1880841,22.2335766 L71.1880841,29.4744526 C71.1880841,29.9318734 71.3219426,30.2871045 71.5896612,30.540146 C71.8573781,30.7931873 72.2638234,30.919708 72.8089953,30.919708 Z M83.0747664,31.0948905 C83.8146416,31.0948905 84.4620327,30.9902676 85.0169393,30.7810219 C85.5718458,30.5717762 86.0342682,30.3406328 86.4042056,30.0875912 C86.8422897,29.7858882 87.2170953,29.4452555 87.5286215,29.0656934 L87.5724299,29.0656934 C87.6308411,29.347932 87.7111565,29.6058394 87.8133762,29.8394161 C87.9155958,30.0729927 88.0421537,30.2725062 88.1930491,30.4379562 C88.3439444,30.6034063 88.5216121,30.729927 88.7260514,30.8175182 C88.9304907,30.9051095 89.1641355,30.9489051 89.426986,30.9489051 C89.6411607,30.9489051 89.8382986,30.919708 90.0183995,30.8613139 C90.1985005,30.8029197 90.3469626,30.7177616 90.463785,30.6058394 C90.5806075,30.4939172 90.6730916,30.3649635 90.7412383,30.2189781 C90.809385,30.0729927 90.8434579,29.9124088 90.8434579,29.7372263 C90.8434579,29.5717762 90.8215537,29.4063262 90.7777453,29.2408759 C90.7339369,29.0754256 90.6852612,28.8613139 90.6317173,28.5985401 C90.5781734,28.3357664 90.5294977,28.0024332 90.4856893,27.5985401 C90.4418808,27.1946471 90.4199766,26.6666665 90.4199766,26.0145985 L90.4199766,20.8905109 C90.4199766,19.2262774 89.93565,17.9586378 88.9669977,17.0875912 C87.9983453,16.2165447 86.5453663,15.7810219 84.6080607,15.7810219 C83.9363318,15.7810219 83.3035435,15.8296843 82.7096963,15.9270073 C82.1158491,16.0243312 81.5852804,16.1411195 81.1179907,16.2773723 C80.6507009,16.4136259 80.2539914,16.5644772 79.9278621,16.729927 C79.6017327,16.8953768 79.3705217,17.0510949 79.234229,17.1970803 C79.0882009,17.333333 78.9859813,17.4720192 78.9275701,17.6131387 C78.8691589,17.7542573 78.8399533,17.9172746 78.8399533,18.1021898 C78.8399533,18.4525547 78.9373054,18.7250611 79.1320093,18.919708 C79.3267135,19.1143549 79.5798287,19.2116788 79.8913551,19.2116788 C80.0763241,19.2116788 80.2783294,19.1678832 80.4973715,19.080292 C80.7164136,18.9927007 80.979264,18.8929443 81.2859229,18.7810219 C81.5925818,18.6690995 81.9576519,18.5669097 82.3811332,18.4744526 C82.8046145,18.3819954 83.3084112,18.3357664 83.8925234,18.3357664 C84.4961056,18.3357664 85.0096379,18.3941606 85.4331192,18.5109489 C85.8566005,18.6277372 86.1973323,18.8077856 86.4553154,19.0510949 C86.7132986,19.2944033 86.9007009,19.6107053 87.0175234,20 C87.1343458,20.3892947 87.192757,20.856448 87.192757,21.4014599 L87.192757,22.9343066 C86.9785823,22.8759124 86.7254673,22.8272509 86.4334112,22.7883212 C86.1802954,22.7493914 85.8760706,22.7153285 85.520736,22.6861314 C85.1654014,22.6569343 84.7638243,22.6423358 84.3160047,22.6423358 C83.3522196,22.6423358 82.4857865,22.729927 81.7167056,22.9051095 C80.9476248,23.080292 80.2929322,23.3381998 79.7526285,23.6788321 C79.2123248,24.0194644 78.7961449,24.4476884 78.5040888,24.9635036 C78.2120327,25.4793189 78.0660047,26.0729927 78.0660047,26.7445255 C78.0660047,27.3673967 78.1779594,27.944039 78.4018692,28.4744526 C78.625779,29.0048663 78.9519082,29.4647203 79.380257,29.8540146 C79.8086058,30.2433089 80.3343068,30.5474453 80.9573598,30.7664234 C81.5804126,30.9854015 82.286215,31.0948905 83.0747664,31.0948905 Z M83.8779206,28.6423358 C83.4690421,28.6423358 83.1088397,28.5888077 82.7973131,28.4817518 C82.4857865,28.3746957 82.222936,28.2311435 82.0087617,28.0510949 C81.7945874,27.8710463 81.6339565,27.6593675 81.5268692,27.4160584 C81.4197818,27.1727493 81.3662383,26.9051095 81.3662383,26.6131387 C81.3662383,26.0194644 81.6339565,25.571776 82.1693925,25.270073 C82.704829,24.96837 83.532321,24.8175182 84.6518692,24.8175182 C85.0315421,24.8175182 85.3747079,24.8321168 85.6813668,24.8613139 C85.9880257,24.8905109 86.2533103,24.9294402 86.4772196,24.9781022 C86.7400701,25.0170315 86.9785823,25.0656934 87.192757,25.1240876 L87.192757,26.8321168 C86.9493775,27.1630169 86.6621888,27.4647201 86.3311916,27.7372263 C86.0391355,27.9610705 85.6886682,28.1678832 85.2797897,28.3576642 C84.8709112,28.5474453 84.4036215,28.6423358 83.8779206,28.6423358 Z M100.145444,38 C101.411021,38 102.525701,37.8564475 103.489486,37.5693431 C104.453271,37.2822386 105.258859,36.8953773 105.90625,36.4087591 C106.553642,35.922141 107.040401,35.350365 107.36653,34.6934307 C107.69266,34.0364964 107.855724,33.3430657 107.855724,32.6131387 C107.855724,31.9805351 107.74377,31.4136252 107.51986,30.9124088 C107.29595,30.4111923 106.955218,29.9854015 106.497664,29.6350365 C106.040109,29.2846715 105.460864,29.0145985 104.75993,28.8248175 C104.058995,28.6350365 103.231503,28.540146 102.277453,28.540146 L100.510514,28.540146 C99.9750776,28.540146 99.5272584,28.5060828 99.1670561,28.4379562 C98.8068537,28.3698298 98.5220991,28.2725062 98.3127921,28.1459854 C98.1034851,28.0194646 97.957457,27.8686131 97.8747079,27.6934307 C97.7919589,27.5182482 97.7505841,27.323601 97.7505841,27.1094891 C97.7505841,26.9245744 97.7870911,26.7518248 97.8601051,26.5912409 C97.9331192,26.4306569 98.0134346,26.2871045 98.1010514,26.1605839 C98.2081383,26.0243308 98.3298285,25.8929439 98.4661215,25.7664234 C98.7484425,25.8637468 99.0551014,25.9367395 99.3860981,25.9854015 C99.7170953,26.0340634 100.062695,26.0583942 100.422897,26.0583942 C101.435358,26.0583942 102.33343,25.9245744 103.117114,25.6569343 C103.900799,25.3892943 104.557925,25.0218978 105.088493,24.5547445 C105.619061,24.0875912 106.023072,23.5231145 106.300526,22.8613139 C106.577979,22.1995137 106.716706,21.4841852 106.716706,20.7153285 C106.716706,20.06326 106.590148,19.4501214 106.337033,18.8759124 C106.083918,18.3017035 105.718848,17.7956204 105.241822,17.3576642 L106.702103,15.9854015 C106.974689,15.7226277 107.176694,15.5012171 107.308119,15.3211679 C107.439544,15.1411204 107.505257,14.9391733 107.505257,14.7153285 C107.505257,14.540146 107.466316,14.3698303 107.388435,14.2043796 C107.310553,14.0389288 107.208334,13.9002427 107.081776,13.7883212 C106.955218,13.6763978 106.811624,13.5863741 106.650993,13.5182482 C106.490362,13.4501222 106.32243,13.4160584 106.147196,13.4160584 C105.913551,13.4160584 105.709112,13.4695858 105.533879,13.5766423 C105.358645,13.6836971 105.154206,13.8783449 104.920561,14.1605839 L103.212033,16.2043796 C102.851831,16.0681268 102.469724,15.9635036 102.065713,15.8905109 C101.661702,15.8175182 101.235787,15.7810219 100.787967,15.7810219 C99.765771,15.7810219 98.8628308,15.9148421 98.0791472,16.1824818 C97.2954635,16.4501222 96.6383374,16.8199516 96.1077687,17.2919708 C95.5772002,17.76399 95.1731893,18.3284672 94.895736,18.9854015 C94.6182827,19.6423358 94.4795561,20.3552308 94.4795561,21.1240876 C94.4795561,21.8540146 94.637753,22.5352801 94.9541472,23.1678832 C95.2705411,23.8004863 95.7256619,24.3454986 96.3195093,24.8029197 C96.0371885,25.0267637 95.7889409,25.2798052 95.5747664,25.5620438 C95.3897974,25.8053531 95.2218652,26.0924576 95.0709696,26.4233577 C94.9200741,26.7542578 94.8446262,27.1289537 94.8446262,27.5474453 C94.8446262,27.9854015 94.9249416,28.3941606 95.0855724,28.7737226 C95.2462033,29.1532847 95.4968848,29.4939174 95.8376168,29.7956204 C95.3995327,30.0291971 95.0149923,30.3357664 94.6839953,30.7153285 C94.3919393,31.0267639 94.1266551,31.4233577 93.8881425,31.9051095 C93.6496299,32.3868613 93.5303738,32.9537712 93.5303738,33.6058394 C93.5303738,34.1995132 93.6569313,34.761557 93.9100467,35.2919708 C94.1631619,35.8223846 94.5574376,36.2895379 95.0928738,36.6934307 C95.62831,37.0973235 96.3146418,37.4160584 97.1518692,37.649635 C97.9890963,37.8832117 98.9869547,38 100.145444,38 Z M100.627336,23.6934307 C100.160047,23.6934307 99.7389991,23.6277372 99.3641939,23.4963504 C98.9893883,23.3649635 98.6729944,23.1751825 98.4150117,22.9270073 C98.157029,22.6788321 97.9598911,22.3819954 97.8235981,22.0364964 C97.6873051,21.6909982 97.6191589,21.3090027 97.6191589,20.8905109 C97.6191589,20.4817518 97.6848715,20.1070557 97.8162967,19.7664234 C97.947722,19.4257902 98.1399921,19.1362527 98.3931075,18.8978102 C98.6462229,18.6593677 98.9553154,18.4744526 99.3203855,18.3430657 C99.6854556,18.2116788 100.101636,18.1459854 100.568925,18.1459854 C101.036215,18.1459854 101.457262,18.2141122 101.832068,18.350365 C102.206872,18.4866177 102.523267,18.6788321 102.78125,18.9270073 C103.039233,19.1751825 103.236371,19.4695867 103.372664,19.810219 C103.508956,20.1508513 103.577103,20.5304133 103.577103,20.9489051 C103.577103,21.3576642 103.51139,21.7323604 103.379965,22.0729927 C103.24854,22.4136259 103.056269,22.7031633 102.803154,22.9416058 C102.550039,23.1800484 102.240946,23.3649635 101.875876,23.4963504 C101.510806,23.6277372 101.094626,23.6934307 100.627336,23.6934307 Z M100.422897,35.6058394 C99.7998444,35.6058394 99.2595406,35.5425789 98.801986,35.4160584 C98.3444313,35.2895379 97.9647584,35.1167883 97.6629673,34.8978102 C97.3611757,34.6788321 97.1397,34.4209245 96.9985397,34.1240876 C96.8573794,33.8272505 96.7867991,33.5085157 96.7867991,33.1678832 C96.7867991,32.7883212 96.8549453,32.4476884 96.9912383,32.1459854 C97.1275313,31.8442824 97.2735593,31.5912409 97.4293224,31.3868613 C97.6142916,31.1435522 97.8284659,30.9294405 98.0718458,30.7445255 C98.383372,30.8223844 98.7022,30.8807785 99.0283294,30.919708 C99.3544589,30.9586375 99.7122276,30.9781022 100.101636,30.9781022 L101.678738,30.9781022 C102.233645,30.9781022 102.700935,31.024331 103.080607,31.1167883 C103.46028,31.2092459 103.769373,31.3454986 104.007886,31.5255474 C104.246398,31.7055963 104.416764,31.9172751 104.518984,32.1605839 C104.621203,32.403893 104.672313,32.6763992 104.672313,32.9781022 C104.672313,33.3381994 104.584696,33.676399 104.409463,33.9927007 C104.234229,34.3090023 103.971379,34.5863745 103.620911,34.8248175 C103.270444,35.0632605 102.829926,35.2530415 102.299357,35.3941606 C101.768788,35.5352797 101.143302,35.6058394 100.422897,35.6058394 Z M122.108061,30.919708 C122.653233,30.919708 123.059677,30.7931873 123.327395,30.540146 C123.595114,30.2871047 123.728972,29.9318736 123.728972,29.4744526 L123.728972,21.810219 C123.728972,20.82725 123.602415,19.9610703 123.349299,19.2116788 C123.096184,18.4622874 122.72868,17.8321168 122.246787,17.3211679 C121.764895,16.810219 121.183217,16.4257911 120.501752,16.1678832 C119.820289,15.9099754 119.051207,15.7810219 118.194509,15.7810219 C117.795366,15.7810219 117.422995,15.8126515 117.077395,15.8759124 C116.731795,15.9391733 116.412967,16.0243312 116.120911,16.1313869 C115.828855,16.2384434 115.563571,16.3600976 115.325058,16.4963504 C115.086546,16.6326031 114.874805,16.7737226 114.689836,16.919708 C114.251752,17.2603412 113.89155,17.6447692 113.609229,18.0729927 L113.550818,18.0729927 L113.419393,17.1824818 C113.390187,16.9781022 113.341511,16.7980538 113.273364,16.6423358 C113.205218,16.4866186 113.1103,16.3527984 112.98861,16.2408759 C112.86692,16.1289544 112.723326,16.046229 112.557827,15.9927007 C112.392329,15.9391725 112.202492,15.9124088 111.988318,15.9124088 C111.559969,15.9124088 111.228972,16.0291971 110.995327,16.2627737 C110.761682,16.4963504 110.64486,16.8272509 110.64486,17.2554745 L110.64486,29.4744526 C110.64486,29.9318734 110.778719,30.2871045 111.046437,30.540146 C111.314155,30.7931873 111.7206,30.919708 112.265771,30.919708 C112.810942,30.919708 113.217387,30.7931873 113.485105,30.540146 C113.752823,30.2871047 113.886682,29.9318736 113.886682,29.4744526 L113.886682,20.7445255 C114.120327,20.316302 114.412383,19.9270073 114.76285,19.5766423 C114.908879,19.4306569 115.071943,19.2871049 115.252044,19.1459854 C115.432145,19.0048659 115.634151,18.8807783 115.858061,18.7737226 C116.081971,18.666667 116.320483,18.5766423 116.573598,18.5036496 C116.826713,18.4306569 117.099299,18.3941606 117.391355,18.3941606 C117.878116,18.3941606 118.313766,18.4695867 118.698306,18.620438 C119.082847,18.7712901 119.408976,19.0024334 119.676694,19.3138686 C119.944413,19.6253038 120.146418,20.0218978 120.28271,20.5036496 C120.419003,20.9854015 120.48715,21.5620438 120.48715,22.2335766 L120.48715,29.4744526 C120.48715,29.9318734 120.621009,30.2871045 120.888727,30.540146 C121.156445,30.7931873 121.56289,30.919708 122.108061,30.919708 Z M134.535047,31.0948905 C135.17757,31.0948905 135.764116,31.0535281 136.294685,30.9708029 C136.825254,30.8880778 137.290109,30.7834551 137.689252,30.6569343 C138.088395,30.5304136 138.42426,30.3917274 138.696846,30.2408759 C138.969432,30.0900242 139.173871,29.9464722 139.310164,29.810219 C139.456192,29.6545014 139.563279,29.5012167 139.631425,29.350365 C139.699572,29.1995135 139.733645,29.0267641 139.733645,28.8321168 C139.733645,28.6861314 139.711741,28.5523114 139.667932,28.4306569 C139.624124,28.3090023 139.558411,28.2019464 139.470794,28.1094891 C139.383178,28.0170317 139.278524,27.9416058 139.156834,27.8832117 C139.035144,27.8248175 138.896418,27.7956204 138.740654,27.7956204 C138.555686,27.7956204 138.363415,27.83455 138.163843,27.9124088 C137.964272,27.9902676 137.725759,28.0705595 137.448306,28.1532847 C137.170853,28.2360098 136.84229,28.3163018 136.462617,28.3941606 C136.082944,28.4720194 135.62539,28.5109489 135.089953,28.5109489 C134.42796,28.5109489 133.821943,28.4111923 133.271904,28.2116788 C132.721865,28.0121654 132.252142,27.7201946 131.862734,27.3357664 C131.473326,26.9513381 131.166667,26.4817518 130.942757,25.9270073 C130.718847,25.3722628 130.587422,24.7396592 130.548481,24.0291971 L130.548481,23.9562044 L138.653037,23.9562044 C139.217679,23.9562044 139.646028,23.8029197 139.938084,23.4963504 C140.23014,23.189781 140.376168,22.7201944 140.376168,22.0875912 C140.376168,21.0948905 140.232574,20.2092454 139.945386,19.4306569 C139.658198,18.6520675 139.254186,17.9902673 138.733353,17.4452555 C138.212519,16.9002436 137.587033,16.4841852 136.856893,16.1970803 C136.126752,15.9099754 135.318731,15.7664234 134.432827,15.7664234 C133.400895,15.7664234 132.449279,15.9489051 131.577979,16.3138686 C130.706678,16.6788321 129.954634,17.2068129 129.321846,17.8978102 C128.689057,18.5888084 128.194996,19.4403896 127.839661,20.4525547 C127.484326,21.4647199 127.306659,22.6180046 127.306659,23.9124088 C127.306659,25.0218978 127.474591,26.0170315 127.810456,26.8978102 C128.14632,27.7785887 128.628213,28.5328467 129.256133,29.1605839 C129.884054,29.7883212 130.6434,30.2676401 131.534171,30.5985401 C132.424942,30.9294405 133.425234,31.0948905 134.535047,31.0948905 Z M137.338785,21.7664234 L130.636098,21.7664234 C130.743185,21.143552 130.908684,20.6058394 131.132593,20.1532847 C131.356503,19.7007299 131.621787,19.3260338 131.928446,19.0291971 C132.235105,18.7323604 132.57097,18.5133823 132.93604,18.3722628 C133.30111,18.2311433 133.688084,18.1605839 134.096963,18.1605839 C135.051012,18.1605839 135.795755,18.4549881 136.331192,19.0437956 C136.866628,19.6326031 137.202493,20.540146 137.338785,21.7664234 Z M148.743575,30.9781022 C149.152454,30.9781022 149.512656,30.9489051 149.824182,30.8905109 C150.135708,30.8321168 150.408294,30.7615573 150.641939,30.6788321 C150.875584,30.596107 151.067855,30.5085157 151.21875,30.4160584 C151.369646,30.323601 151.484035,30.2335766 151.561916,30.1459854 C151.698209,30.0097324 151.805296,29.8661802 151.883178,29.7153285 C151.961059,29.5644767 152,29.3722628 152,29.1386861 C152,28.9927007 151.975662,28.8588807 151.926986,28.7372263 C151.878309,28.6155719 151.815031,28.5109489 151.73715,28.4233577 C151.659268,28.3357664 151.56435,28.2676398 151.452395,28.2189781 C151.34044,28.1703164 151.211449,28.1459854 151.065421,28.1459854 C150.968068,28.1459854 150.87315,28.1581508 150.780666,28.1824818 C150.688182,28.2068127 150.583528,28.2360098 150.466706,28.270073 C150.349883,28.3041362 150.218458,28.3333333 150.07243,28.3576642 C149.926402,28.3819952 149.751168,28.3941606 149.546729,28.3941606 C149.011293,28.3941606 148.61215,28.2384427 148.349299,27.9270073 C148.086449,27.6155716 147.955023,27.0851581 147.955023,26.3357664 L147.955023,18.540146 L150.758762,18.540146 C151.099493,18.540146 151.372079,18.4330903 151.576519,18.2189781 C151.780958,18.0048659 151.883178,17.6934307 151.883178,17.2846715 C151.883178,16.8856451 151.780958,16.5790757 151.576519,16.3649635 C151.372079,16.1508513 151.099493,16.0437956 150.758762,16.0437956 L147.955023,16.0437956 L147.955023,13.3284672 C147.955023,12.9002427 147.845502,12.5717756 147.62646,12.3430657 C147.407418,12.1143558 147.093458,12 146.684579,12 C146.275701,12 145.947138,12.1167883 145.69889,12.350365 C145.450643,12.5839416 145.287578,12.9391733 145.209696,13.4160584 L144.800818,16.0437956 L143.311332,16.0437956 C142.9706,16.0437956 142.700448,16.1508513 142.500876,16.3649635 C142.301304,16.5790757 142.201519,16.8856451 142.201519,17.2846715 C142.201519,17.6934307 142.301304,18.0048659 142.500876,18.2189781 C142.700448,18.4330903 142.9706,18.540146 143.311332,18.540146 L144.727804,18.540146 L144.727804,27.0218978 C144.727804,28.3454986 145.053933,29.3357664 145.706192,29.9927007 C146.35845,30.649635 147.370911,30.9781022 148.743575,30.9781022 Z" id="magnet" fill="#FFFFFF"></path>
                <g id="logo_magnet_icon_white">
                    <rect id="Shape" x="0" y="0" width="44" height="44"></rect>
                    <g id="Icon" transform="translate(2.000000, 4.000000)">
                        <path d="M19.9994979,2.19814949 L19.9994979,6.38421757 L22.0214413,7.9522927 C23.3685109,6.47078323 25.4279473,5.56493541 27.4873838,5.56493541 C31.1342467,5.56493541 33.9743407,8.22497454 33.9743407,11.6783261 C33.9743407,13.0213305 33.5860205,14.3383652 32.7631832,15.7660803 L32.5750487,16.085755 L32.3782105,16.4029563 L32.1713296,16.718921 L32.0280528,16.9297702 L31.8037644,17.2475898 L31.5660856,17.5678828 L31.3150164,17.892504 L31.1382638,18.1113915 L30.9548159,18.3333705 L30.6649148,18.6722133 L30.4620509,18.9028489 L30.1413519,19.2571498 L29.7992284,19.6213439 L29.3098109,20.1271347 L29.048699,20.389305 L28.6376152,20.7943087 L28.1997506,21.2160071 L27.7357748,21.6544003 L27.2436793,22.11258 L26.5400162,22.7556392 L25.5812669,23.6138759 L24.5301241,24.5401285 L23.6175715,25.3352959 L22.1225385,26.6220327 L19.9994979,28.4318733 L19.9994979,32.7477899 L21.7576513,34.5069278 L26.1222372,30.7870777 L27.5335805,29.5733034 L29.0681151,28.2377189 L30.0007532,27.4128718 L30.8657701,26.6362542 L31.4723531,26.0834706 L32.0454603,25.5523284 L32.4090084,25.2097757 L32.9278846,24.7138782 L33.4166325,24.2346754 L33.7272887,23.9242757 L34.0258936,23.6212958 L34.3124472,23.323881 L34.5882885,23.032031 L34.854087,22.745746 L35.1098427,22.4631709 L35.3548862,22.1855425 L35.591226,21.9110057 L35.8195315,21.6389422 C35.8570245,21.5938044 35.8945175,21.5486666 35.9306714,21.5035288 L36.2520399,21.1016168 L36.55734,20.7027964 L36.7528392,20.4381528 L36.9423127,20.1722725 L37.1163873,19.9218504 C37.2596641,19.7122379 37.3982542,19.502007 37.5328273,19.2893028 L37.6935115,19.0326974 C37.8254065,18.8187566 37.955293,18.6011058 38.0825013,18.3803633 C39.3498983,16.1815955 40,13.9772628 40,11.6783261 C40,5.16797002 34.4804961,0 27.4873838,0 C24.8052959,0 22.1834646,0.798259068 19.9994979,2.19814949 Z" id="Shape" fill="url(#linearGradient-1)"></path>
                        <path d="M19.9998326,28.430884 L17.8774615,26.6216617 L16.383098,25.334925 L15.4698759,24.5403758 L14.4187331,23.6141233 L13.4599838,22.7552682 L12.7576597,22.112209 L12.2642252,21.6546477 L11.8002494,21.2156361 L11.3630543,20.7939377 L10.951301,20.388934 L10.6915281,20.1267637 L10.2007716,19.6215913 L9.85931759,19.2567788 L9.53861862,18.9030963 L9.33508524,18.6724606 L9.04585359,18.3329996 L8.86173623,18.1116388 L8.68632259,17.8927513 L8.43458394,17.5681301 L8.19690515,17.2478371 L7.97194721,16.9300175 L7.82867042,16.7191683 L7.62312849,16.4025853 L7.42629029,16.085384 L7.2374863,15.7657093 C6.41464905,14.3386126 6.02565927,13.0209595 6.02565927,11.6779551 C6.02565927,8.22460354 8.86642285,5.56518274 12.5126162,5.56518274 C14.5733917,5.56518274 16.6321586,6.47103056 17.9785587,7.95192171 L19.9998326,6.38508322 L19.9998326,2.19716017 C17.8158659,0.797888073 15.1940346,0.000247330463 12.5126162,0.000247330463 C5.51950389,0.000247330463 0,5.16821735 0,11.6779551 C0,13.9775101 0.650771201,16.1812245 1.9181682,18.3806107 C2.04537656,18.6013531 2.17459348,18.8183856 2.30648846,19.0329448 L2.46717271,19.2889318 L2.63522165,19.5498654 L2.8072877,19.8089441 L3.07442526,20.1953979 L3.25787311,20.4526216 L3.5450962,20.8378388 L3.74394296,21.0956808 L3.94881537,21.3553778 L4.161722,21.6163114 L4.49514181,22.0114219 L4.72679494,22.2791571 L4.96849082,22.5493656 L5.34676832,22.9630258 L5.61189733,23.2443642 L6.02833734,23.6765742 L6.31890802,23.9708974 L6.62219953,24.2726406 L7.0975571,24.7376219 L7.77577852,25.384391 L8.13530953,25.7201421 L8.69971294,26.2407728 L9.29759225,26.7836631 L10.1465407,27.543586 L11.0604323,28.3498833 L12.5594825,29.6533148 L14.2225644,31.0810299 L18.2430182,34.5065568 L19.9998326,32.7480372 L19.9998326,28.430884 Z" id="Shape" fill="url(#linearGradient-2)"></path>
                        <polygon id="Shape" fill="#FFFFFF" points="19.9932713 36 15.5731155 32.2325387 20.000636 28.4316878 24.4134272 32.2455236"></polygon>
                        <polygon id="Shape" fill="#FFFFFF" points="20.0004352 10.3040962 15.6117467 6.25096828 20.0004352 2.19784032 24.3891237 6.25096828"></polygon>
                    </g>
                </g>
            </g>
        </g>
    </g>
</svg>